<svg xmlns="http://www.w3.org/2000/svg" viewBox="0 0 200 200" width="200" height="200">
  <!-- Background circle -->
  <circle cx="100" cy="100" r="95" fill="#0ea5e9" opacity="0.1"/>
  
  <!-- Folder base -->
  <path d="M 40 70 L 40 150 Q 40 155 45 155 L 155 155 Q 160 155 160 150 L 160 85 Q 160 80 155 80 L 90 80 L 80 70 Z" 
        fill="#0ea5e9" opacity="0.8"/>
  
  <!-- Folder tab -->
  <path d="M 40 70 L 80 70 L 85 62 Q 87 58 92 58 L 120 58 Q 125 58 127 62 L 132 70 L 155 70 Q 160 70 160 75 L 160 85 L 40 85 Z" 
        fill="#0284c7"/>
  
  <!-- Cloud icon inside folder -->
  <g transform="translate(100, 110)">
    <path d="M -20 0 Q -25 0 -25 -5 Q -25 -12 -18 -15 Q -15 -20 -8 -20 Q -2 -20 2 -16 Q 8 -18 14 -14 Q 18 -10 18 -4 Q 18 2 12 2 Z" 
          fill="white" opacity="0.9"/>
  </g>
  
  <!-- Connection lines -->
  <circle cx="70" cy="120" r="3" fill="white" opacity="0.7"/>
  <circle cx="100" cy="130" r="3" fill="white" opacity="0.7"/>
  <circle cx="130" cy="120" r="3" fill="white" opacity="0.7"/>
  <line x1="70" y1="120" x2="100" y2="130" stroke="white" stroke-width="1.5" opacity="0.5"/>
  <line x1="100" y1="130" x2="130" y2="120" stroke="white" stroke-width="1.5" opacity="0.5"/>
</svg>
